HIERARCHY
ROOT Hips
{
	OFFSET 0.0000 0.0000 0.0000
	CHANNELS 6 Xposition Yposition Zposition Zrotation Xrotation Yrotation
	JOINT Spine1
	{
		OFFSET -0.0137 5.0038 -0.0537
		CHANNELS 3 Zrotation Xrotation Yrotation
		JOINT Spine2
		{
			OFFSET -0.0000 7.1253 -0.0298
			CHANNELS 3 Zrotation Xrotation Yrotation
			JOINT Chest
			{
				OFFSET -0.0000 7.5501 -0.8160
				CHANNELS 3 Zrotation Xrotation Yrotation
				JOINT Neck1
				{
					OFFSET -0.1817 26.3113 -0.5533
					CHANNELS 3 Zrotation Xrotation Yrotation
					JOINT Neck2
					{
						OFFSET -0.0000 7.7094 2.3026
						CHANNELS 3 Zrotation Xrotation Yrotation
						JOINT Head
						{
							OFFSET -0.0000 6.1289 1.9537
							CHANNELS 3 Zrotation Xrotation Yrotation
							JOINT Jaw
							{
								OFFSET 0.0026 0.4756 3.0949
								CHANNELS 3 Zrotation Xrotation Yrotation
								End Site
								{
									OFFSET 0.0 1.0 0.0
								}
							}
							JOINT LeftEye
							{
								OFFSET 3.2064 5.3802 7.5869
								CHANNELS 3 Zrotation Xrotation Yrotation
								End Site
								{
									OFFSET 0.0 1.0 0.0
								}
							}
							JOINT RightEye
							{
								OFFSET -3.2224 5.3619 7.5582
								CHANNELS 3 Zrotation Xrotation Yrotation
								End Site
								{
									OFFSET 0.0 1.0 0.0
								}
							}
						}
					}
				}
				JOINT LeftShoulder
				{
					OFFSET 1.6217 23.2372 5.1134
					CHANNELS 3 Zrotation Xrotation Yrotation
					JOINT LeftArm
					{
						OFFSET 14.9198 0.0000 -5.5023
						CHANNELS 3 Zrotation Xrotation Yrotation
						JOINT LeftForeArm
						{
							OFFSET 28.7393 0.0000 -0.0026
							CHANNELS 3 Zrotation Xrotation Yrotation
							JOINT LeftHand
							{
								OFFSET 27.0940 -0.0000 0.0026
								CHANNELS 3 Zrotation Xrotation Yrotation
								JOINT LeftHandThumbEnd
								{
									OFFSET 12.2686 -3.2202 4.8331
									CHANNELS 3 Zrotation Xrotation Yrotation
									End Site
									{
										OFFSET 0.0 1.0 0.0
									}
								}
								JOINT LeftHandMiddleEnd
								{
									OFFSET 19.0120 -0.3129 -0.0340
									CHANNELS 3 Zrotation Xrotation Yrotation
									End Site
									{
										OFFSET 0.0 1.0 0.0
									}
								}
							}
						}
					}
				}
				JOINT RightShoulder
				{
					OFFSET -1.3801 23.1803 5.2142
					CHANNELS 3 Zrotation Xrotation Yrotation
					JOINT RightArm
					{
						OFFSET -15.0372 0.0000 -5.5456
						CHANNELS 3 Zrotation Xrotation Yrotation
						JOINT RightForeArm
						{
							OFFSET -28.7366 0.0000 -0.0026
							CHANNELS 3 Zrotation Xrotation Yrotation
							JOINT RightHand
							{
								OFFSET -27.1336 -0.0000 0.0026
								CHANNELS 3 Zrotation Xrotation Yrotation
								JOINT RightHandThumbEnd
								{
									OFFSET -12.2642 -3.2115 4.8040
									CHANNELS 3 Zrotation Xrotation Yrotation
									End Site
									{
										OFFSET 0.0 1.0 0.0
									}
								}
								JOINT RightHandMiddleEnd
								{
									OFFSET -19.0006 -0.3066 -0.0316
									CHANNELS 3 Zrotation Xrotation Yrotation
									End Site
									{
										OFFSET 0.0 1.0 0.0
									}
								}
							}
						}
					}
				}
			}
		}
	}
	JOINT LeftLeg
	{
		OFFSET 10.0432 -8.4345 2.5957
		CHANNELS 3 Zrotation Xrotation Yrotation
		JOINT LeftShin
		{
			OFFSET -0.0000 -43.2218 -0.8029
			CHANNELS 3 Zrotation Xrotation Yrotation
			JOINT LeftFoot
			{
				OFFSET 0.0000 -42.1551 -3.4815
				CHANNELS 3 Zrotation Xrotation Yrotation
				JOINT LeftToeBase
				{
					OFFSET 0.0000 -5.0595 13.2315
					CHANNELS 3 Zrotation Xrotation Yrotation
					End Site
					{
						OFFSET 0.0 1.0 0.0
					}
				}
			}
		}
	}
	JOINT RightLeg
	{
		OFFSET -10.0473 -8.2953 2.6203
		CHANNELS 3 Zrotation Xrotation Yrotation
		JOINT RightShin
		{
			OFFSET 0.0000 -43.3622 -0.8056
			CHANNELS 3 Zrotation Xrotation Yrotation
			JOINT RightFoot
			{
				OFFSET 0.0000 -42.1174 -3.4784
				CHANNELS 3 Zrotation Xrotation Yrotation
				JOINT RightToeBase
				{
					OFFSET -0.0000 -5.0796 13.2842
					CHANNELS 3 Zrotation Xrotation Yrotation
					End Site
					{
						OFFSET 0.0 1.0 0.0
					}
				}
			}
		}
	}
}
MOTION
Frames: 16
Frame Time: 0.033333
-22.2263 98.7341 -334.0057 3.3957 1.8017 1.0194 -0.9842 -4.0505 0.4177 -0.5708 -6.0024 3.0772 -2.8827 11.4562 0.6559 -0.2312 -1.8727 2.8353 0.4349 -3.6095 3.4799 -1.0959 -7.6917 3.6209 0.0367 -0.0090 0.0179 0.7123 -10.6113 -3.8548 -0.6477 -10.6285 3.8847 -26.4228 9.6593 -7.3589 -50.6834 13.6704 9.0009 -0.1146 0.3294 -26.1505 9.4432 -28.0350 3.4700 -15.0082 10.9466 15.4527 -60.6116 1.4372 2.1005 21.1691 7.9535 16.9815 54.9916 3.8256 10.1110 -0.1987 -0.0450 29.3121 -5.6264 -17.8358 5.1372 15.6919 7.4237 -16.4496 50.1370 -3.4961 -4.9293 -5.4426 -14.0227 1.4001 0.0341 9.1863 0.2101 -1.8497 1.0428 1.1060 1.6079 -1.0850 -1.9426 -6.4167 4.5823 2.6760 -0.0445 33.1797 0.5786 5.1744 -6.8127 5.2270 -1.5377 -8.5484 1.2523
-22.9066 98.4615 -336.7005 3.3044 2.5167 0.2711 -0.5917 -4.2180 0.5063 -0.4538 -6.0786 3.3851 -3.0057 11.4021 0.9684 -1.0797 -2.3502 3.0443 0.4774 -3.6172 3.7401 -1.1615 -7.9215 3.7417 0.0374 -0.0080 0.0173 0.7114 -10.6056 -3.8517 -0.6463 -10.6193 3.8809 -26.9849 9.6234 -6.9354 -51.3991 13.3737 9.3109 -0.2689 0.2585 -26.3741 8.4468 -26.8438 4.0533 -14.9728 10.8455 15.3854 -60.4343 1.3190 2.1871 20.8625 7.8553 17.5929 54.6440 3.4495 11.4037 -0.2140 -0.0288 31.1189 -5.2414 -17.1572 5.4582 15.5919 7.3513 -16.3068 49.8146 -3.5121 -5.0277 -4.8749 -16.8257 1.4812 0.0636 9.5358 0.2266 -2.3537 2.7537 1.5844 1.5919 -1.0100 -1.9526 -6.3508 6.5260 2.0797 -0.0611 27.9766 0.5893 4.8528 -6.2921 6.3683 -1.5527 -11.4569 1.2757
-23.7139 98.1003 -339.7245 2.9945 3.2036 -0.3985 -0.1505 -4.1912 0.5479 -0.3212 -6.0821 3.6598 -2.9501 11.3885 1.1900 -1.9515 -2.8350 3.2774 0.5530 -3.6527 3.9926 -1.2846 -8.4785 3.9638 0.0382 -0.0032 0.0190 0.7172 -10.6148 -3.8501 -0.6523 -10.6350 3.8831 -27.1727 9.6250 -6.6138 -52.5513 12.9447 8.8869 -0.3794 0.2081 -26.8353 7.6527 -26.1212 4.4080 -14.9632 10.7955 15.3537 -60.3533 1.2536 2.1692 20.4043 7.8043 18.2638 54.0106 3.1114 13.2064 -0.1718 0.0035 32.7714 -4.4225 -16.0098 5.5831 15.5512 7.3294 -16.1847 49.6538 -3.4723 -5.0670 -3.9759 -19.7264 1.5574 0.0994 9.7274 0.2036 -2.9634 4.7730 1.9717 1.5762 -0.9531 -1.9813 -5.8666 7.3062 1.4273 -0.0357 22.9668 0.5176 3.4542 -7.4171 5.7586 -1.5580 -14.3253 1.2955
-24.5860 97.7366 -343.0567 2.2548 3.5897 -0.7734 0.4789 -3.8412 0.5351 -0.2358 -5.9748 3.7711 -2.5503 11.5136 1.3081 -2.7549 -3.2715 3.5494 0.5637 -3.6759 4.2656 -1.3836 -9.2408 3.9335 0.0540 -0.0043 0.0656 0.7332 -10.6327 -3.8116 -0.6366 -10.6714 3.9340 -27.0253 9.6303 -6.5256 -54.0126 12.2680 7.9391 -0.4917 0.2039 -27.5381 7.1217 -25.3875 4.5767 -14.8453 10.8527 15.4598 -60.2429 1.2381 2.0994 19.8784 7.8143 18.9015 52.9453 2.6037 15.1677 -0.1119 0.0468 34.0537 -3.3484 -14.6026 5.4765 15.4410 7.4147 -16.1648 49.7724 -3.3542 -5.2031 -2.4788 -22.3710 1.3968 0.1064 9.6068 0.1596 -3.8622 7.0600 2.1791 1.5921 -1.2137 -2.0588 -4.6721 6.9855 0.6498 -0.0139 19.4011 0.4185 1.9522 -10.2084 4.6702 -1.5372 -13.4961 1.2994
-25.5745 97.4491 -346.6484 0.9013 3.6587 -1.0145 1.3617 -3.2594 0.5073 -0.1368 -5.6974 3.7390 -1.8404 11.5807 1.4337 -3.1611 -3.5772 3.6465 0.4348 -3.6267 4.2007 -1.6202 -10.1745 4.4024 0.0501 -0.0108 0.0238 0.7447 -10.6430 -3.8647 -0.6546 -10.6963 3.9069 -26.4098 9.8706 -6.3925 -55.8042 11.2162 6.6036 -0.4118 0.2224 -28.4883 6.7569 -25.2196 4.5514 -14.8265 10.7925 15.4507 -60.1193 1.2127 2.1849 19.2524 7.8025 19.4503 52.0164 1.6364 16.3811 0.1198 0.0407 34.8345 -2.9208 -13.6428 5.5262 15.3395 7.4180 -16.1619 49.6970 -3.3974 -5.3065 -0.2479 -24.4590 1.4185 0.0754 9.0089 0.1826 -5.2496 9.2584 1.3294 1.6638 -1.9484 -2.0724 -2.3413 5.7224 0.7001 -0.0713 17.8782 0.3185 0.9462 -13.0225 3.6069 -1.5131 -9.8995 1.3045
-26.5957 97.0542 -350.1383 -0.5493 3.4757 -0.8531 2.1834 -2.6438 0.4399 -0.0650 -5.3407 3.5613 -1.0698 11.5783 1.4556 -3.2253 -3.4992 3.7427 0.4652 -3.6387 4.2639 -1.8923 -10.8516 4.5696 0.0497 -0.0032 0.0144 0.7457 -10.6449 -3.8751 -0.6567 -10.6952 3.8995 -25.2504 10.2127 -6.2607 -57.7032 10.2904 5.0288 -0.3646 0.1734 -29.7089 6.6481 -24.9489 4.4046 -14.8657 10.7722 15.4838 -60.0478 1.2825 2.1790 18.6305 7.9479 19.8747 51.2840 0.3505 17.3882 0.1552 -0.0161 34.6570 -2.7032 -13.4647 5.5546 15.2544 7.3709 -16.0350 49.6361 -3.4233 -5.1641 2.1516 -26.1310 1.3057 -0.0334 8.3706 0.0788 -6.9382 9.6762 0.7278 1.6579 -2.5826 -2.1014 0.1516 4.2362 0.6884 -0.0541 17.2311 0.2387 0.0327 -15.1406 2.6167 -1.4884 -6.5915 1.2442
-27.5015 96.6306 -353.4787 -1.7524 3.1442 -0.4279 2.8273 -2.0583 0.3692 -0.0437 -5.0142 3.3295 -0.4385 11.5590 1.4432 -2.9195 -3.2429 3.5823 0.5659 -3.5895 4.3724 -2.0996 -11.4837 4.7580 0.0458 0.0198 0.0018 0.7379 -10.6342 -3.8883 -0.6567 -10.6753 3.8922 -23.9785 10.5796 -6.3131 -59.2153 9.5510 3.5595 -0.3554 0.1717 -31.2563 6.9027 -25.0189 3.8821 -14.8837 10.7304 15.4697 -59.9249 1.2242 2.0858 18.1413 8.0129 19.9424 50.8262 -0.8922 18.0020 0.0737 -0.0207 33.8104 -2.7083 -13.7646 5.6206 15.2374 7.4043 -16.0063 49.7029 -3.3272 -5.0971 4.1731 -27.7585 0.9885 -0.0595 8.8076 -0.0155 -7.5325 7.3154 1.1895 1.6091 -3.0485 -2.0995 2.3313 2.8270 0.4808 -0.0375 16.8935 0.1934 -0.8861 -16.9590 1.6475 -1.4744 -3.5001 1.1994
-28.2838 96.3661 -356.6112 -2.4155 2.6996 0.0830 3.1787 -1.5129 0.3951 -0.0518 -4.7564 3.0818 -0.1643 11.5705 1.3830 -2.4925 -3.0383 3.2071 0.6458 -3.5837 4.3962 -1.9212 -12.0598 4.8539 0.0340 0.0442 -0.0074 0.7181 -10.6101 -3.8940 -0.6589 -10.6265 3.8877 -23.1628 10.8045 -6.5830 -59.6433 8.8981 2.3286 -0.3983 0.0996 -32.6062 7.6357 -25.3376 3.1588 -14.8221 10.7631 15.4745 -59.9224 1.3064 2.0084 18.0997 8.0254 19.7981 50.4652 -1.9313 18.0495 0.0733 -0.0788 32.5046 -2.9931 -14.3377 5.7037 15.3040 7.4785 -15.9972 49.7973 -3.2429 -5.0449 5.4939 -29.2604 0.7466 -0.0383 11.3166 -0.0451 -6.5863 3.7892 2.4185 1.5973 -3.4399 -2.1129 3.8997 1.6622 0.3832 -0.0788 16.4215 0.2487 -1.8267 -17.8466 0.8752 -1.4485 -1.3038 1.1701
-28.9773 96.5262 -359.5228 -2.7221 2.2602 0.3381 3.3351 -1.1451 0.4841 -0.0411 -4.6016 2.9722 -0.1360 11.6891 1.2062 -2.0028 -3.0419 2.9527 0.7225 -3.5404 4.3676 -1.7852 -12.3686 4.8855 0.0327 0.0544 -0.0107 0.7351 -10.5998 -3.9000 -0.6775 -10.6082 3.8882 -23.1205 10.8177 -6.9683 -58.9176 8.1438 1.2250 -0.3583 0.0414 -33.1112 8.5665 -25.4196 2.5736 -14.8393 10.8162 15.4251 -60.0758 1.4658 1.7806 18.5477 8.0677 19.7635 50.1218 -2.5099 17.8828 0.1714 -0.0624 30.6423 -3.5678 -14.9831 5.7013 15.3566 7.4794 -16.0397 49.8843 -3.2167 -4.9491 6.5489 -30.0730 0.3804 -0.0327 15.3904 -0.1027 -5.1780 0.5881 3.7634 1.6169 -3.7580 -2.1469 4.9226 0.0096 0.6347 -0.1330 16.8133 0.1974 -2.4838 -17.2966 0.1207 -1.4329 -0.5099 1.1363
-29.4994 96.9848 -362.1312 -2.6171 1.8792 0.3390 3.3489 -0.9450 0.5811 -0.0501 -4.5319 2.9011 -0.3367 11.6922 1.0778 -1.6254 -3.0083 2.8199 0.7137 -3.5394 4.2339 -1.6355 -12.2972 4.7250 0.0318 0.0531 -0.0202 0.7519 -10.5813 -3.9071 -0.6954 -10.5909 3.8740 -23.1479 10.7496 -7.3409 -57.9917 7.2119 0.2619 -0.2657 0.0321 -32.7012 9.4902 -25.2794 2.1935 -14.8241 10.8613 15.4153 -60.0925 1.5330 1.7110 18.7900 8.0210 19.6555 50.5454 -2.2286 17.9104 0.2593 -0.0484 28.3257 -3.8589 -15.4818 5.3393 15.4508 7.4171 -16.0250 49.9326 -3.2368 -4.9265 7.1764 -29.5752 -0.1141 -0.0354 19.5801 -0.1480 -4.2142 -2.3140 4.8315 1.6467 -4.0445 -2.1513 5.2539 -1.4089 1.0588 -0.1237 16.7193 0.1759 -2.7541 -15.8826 -0.5638 -1.4266 -0.3571 1.1028
-29.8986 97.5860 -364.5477 -2.2754 1.5848 0.0224 3.3462 -0.8727 0.6873 -0.0614 -4.5205 2.8918 -0.6805 11.5061 0.9398 -1.4191 -2.9440 2.8117 0.6561 -3.5189 4.0645 -1.5597 -11.9229 4.4896 0.0326 0.0525 -0.0151 0.7634 -10.5520 -3.8961 -0.7042 -10.5676 3.8711 -23.1688 10.5285 -7.7299 -57.0634 6.5258 -0.6721 -0.1236 0.0822 -31.8105 10.1918 -25.1732 2.0197 -14.7430 10.8940 15.4640 -59.9845 1.4982 1.7535 18.7970 7.9557 19.4279 51.5101 -0.8947 18.3379 0.3251 -0.0648 26.1450 -3.4900 -15.7408 4.5267 15.5917 7.3257 -16.0258 49.9213 -3.2986 -5.0819 7.4964 -27.8738 -0.7975 -0.0514 23.4978 -0.1889 -3.6549 -4.4859 5.7351 1.6696 -4.2519 -2.1576 5.1685 -2.3968 1.6864 -0.0977 15.7042 0.1471 -2.8072 -13.8666 -1.2114 -1.4286 -0.4347 1.0482
-30.2095 98.2087 -366.9416 -1.8453 1.4684 -0.3877 3.3229 -0.9840 0.7933 -0.0626 -4.6205 2.8411 -1.0012 11.3183 0.7475 -1.3697 -2.9499 2.9191 0.5947 -3.5070 3.8813 -1.6254 -11.4223 4.2881 0.0337 0.0402 -0.0047 0.7611 -10.5423 -3.8814 -0.6981 -10.5625 3.8753 -23.2690 10.1922 -8.2265 -56.1815 5.9927 -1.4557 0.0388 0.1318 -30.7090 10.6746 -25.3062 1.9778 -14.6806 10.9551 15.5536 -59.9868 1.4288 1.8195 18.7755 7.9157 19.1477 52.6197 1.1347 18.7810 0.3552 -0.0622 24.6418 -2.5914 -15.7754 3.5313 15.7192 7.2884 -16.0460 49.8582 -3.3721 -5.2536 7.4076 -25.5619 -1.4970 -0.0970 27.2651 -0.2674 -2.7896 -5.8873 6.7837 1.6997 -4.2704 -2.1672 4.8393 -3.1877 2.3444 -0.0708 14.1320 0.0896 -2.7380 -11.5940 -1.7256 -1.4342 -0.5679 0.9886
-30.4557 98.7469 -369.2440 -1.4144 1.5311 -0.6284 3.2721 -1.2392 0.8183 -0.0550 -4.7540 2.7231 -1.2460 11.1014 0.4487 -1.3705 -3.0819 3.0620 0.5282 -3.5056 3.7502 -1.7835 -10.8723 4.0909 0.0308 0.0202 -0.0071 0.7532 -10.5303 -3.8787 -0.6953 -10.5534 3.8659 -23.3598 9.7633 -8.8836 -55.3450 5.5311 -2.1726 0.0984 0.1327 -29.4632 10.9772 -25.5622 2.0416 -14.6796 11.0606 15.6518 -59.9941 1.4030 1.8659 18.8657 7.8854 18.7107 53.7418 3.4182 18.8598 0.2822 -0.0334 23.7956 -1.6608 -15.5402 2.5893 15.8028 7.2814 -16.0573 49.8037 -3.4662 -5.3643 6.7760 -23.1061 -1.5920 -0.1223 31.3656 -0.3353 -2.0411 -6.9174 7.6883 1.7330 -4.1639 -2.1847 4.4071 -4.0740 2.7698 -0.0527 12.4647 0.0170 -2.5628 -9.4075 -2.1599 -1.4405 -0.6623 0.9303
-30.6309 99.1252 -371.5755 -1.1284 1.6990 -0.6510 3.2141 -1.5571 0.7939 -0.0451 -4.9167 2.4201 -1.3349 10.8865 0.0980 -1.3065 -3.3383 3.1238 0.4835 -3.5063 3.7346 -2.0210 -10.4209 3.9754 0.0260 0.0051 -0.0203 0.7482 -10.5315 -3.8920 -0.6987 -10.5541 3.8533 -23.3490 9.3990 -9.5694 -54.6729 5.1207 -3.0286 0.0917 0.1073 -28.3561 10.9597 -25.3850 2.3491 -14.7109 11.1717 15.7655 -60.0340 1.4377 1.9182 19.1469 7.8987 18.1863 54.5995 5.7119 18.3810 0.2477 -0.0098 23.7104 -1.0963 -15.2218 1.9583 15.8326 7.2909 -16.1121 49.8110 -3.5454 -5.3866 5.9092 -20.6857 -0.6276 -0.1147 35.6997 -0.3650 -2.0597 -8.0284 7.7857 1.7656 -4.0735 -2.2027 4.0742 -5.1916 2.9772 -0.0446 11.1576 -0.0651 -2.2643 -7.6150 -2.5115 -1.4485 -0.6298 0.8894
-30.7286 99.3377 -373.9672 -1.0972 1.9078 -0.5044 3.1904 -1.8980 0.7594 -0.0203 -5.1030 1.9264 -1.1922 10.6884 -0.2682 -1.1365 -3.6445 3.1388 0.4539 -3.4895 3.7082 -2.2876 -10.0673 3.9918 0.0193 0.0039 -0.0388 0.7470 -10.5334 -3.9124 -0.7091 -10.5447 3.8386 -23.2679 9.0910 -10.2145 -54.1720 4.8819 -4.1716 0.0718 0.0408 -27.7993 10.8067 -24.8117 2.6831 -14.7944 11.2257 15.8240 -60.0795 1.4798 1.9791 19.6674 7.9254 17.5524 54.9906 8.1921 17.6372 0.2618 0.0113 24.1660 -0.8249 -15.0170 1.6664 15.7828 7.2605 -16.1626 49.7435 -3.6185 -5.4083 5.2382 -17.9928 1.0932 -0.0886 39.7767 -0.3663 -2.6176 -9.1885 7.2351 1.7998 -4.0883 -2.1996 3.9814 -6.6634 2.9571 -0.0413 10.4736 -0.1593 -1.8658 -6.1840 -2.7536 -1.4544 -0.5353 0.8744
-30.8557 99.3906 -376.2987 -1.3891 2.1013 -0.1956 3.2304 -2.2402 0.7019 0.0265 -5.2653 1.3502 -0.7894 10.5380 -0.6231 -0.8588 -3.9315 3.0976 0.3856 -3.4632 3.6462 -2.5426 -9.8358 4.1519 0.0127 0.0092 -0.0545 0.7462 -10.5161 -3.9269 -0.7199 -10.5150 3.8244 -23.1018 8.7764 -10.7579 -53.8925 4.6574 -5.3112 -0.0421 -0.0594 -27.8985 10.9497 -24.2497 2.6514 -14.9089 11.1951 15.8392 -60.1355 1.4518 2.0770 20.3994 7.9754 16.8462 54.9296 10.6235 16.7719 0.2262 0.0443 24.7355 -0.7317 -15.0804 1.5820 15.7028 7.2076 -16.2179 49.6597 -3.6964 -5.3830 5.1159 -14.9737 2.9539 -0.0989 43.0034 -0.4498 -3.3753 -9.9593 6.2549 1.8235 -4.2616 -2.1758 4.2378 -8.4032 2.8030 -0.0409 10.3929 -0.2419 -1.4529 -4.8937 -2.9636 -1.4528 -0.4524 0.8841
